<svg xmlns="http://www.w3.org/2000/svg" viewBox="0 0 1237.04 404.38"><defs><style>.cls-1{fill:#e1251b;}</style></defs><g id="Calque_2" data-name="Calque 2"><g id="Calque_1-2" data-name="Calque 1"><path class="cls-1" d="M396.64,306.55H302.88v28.7h65.06l.07,1.49c-8.76,25-28.85,39.39-60.54,39.39-36.62,0-64.23-29.34-64.23-66.46,0-38.59,28.75-69.05,66.87-69.05,29.22,0,50,14.34,61.85,40l26.89-12.4c-16.62-36-48.13-55.81-88.74-55.81-54.1,0-96.47,42.74-96.47,97.3,0,53.11,41.21,94.71,93.83,94.71,27.46,0,48.19-11.08,63.17-28.37l2.7,21.61h23.3V309.27l.15-.89h-.15Z"/><polygon class="cls-1" points="396.64 151.27 248.36 151.27 248.36 103.94 379.56 103.94 379.56 76.5 248.36 76.5 248.36 29.18 396.64 29.18 396.64 0.98 218.15 0.98 218.15 179.47 396.64 179.47 396.64 151.27"/><polygon class="cls-1" points="148.03 74.74 30.21 74.74 30.21 0.98 0 0.98 0 179.47 30.21 179.47 30.21 103.19 148.03 103.19 148.03 179.47 178.49 179.47 178.49 0.98 148.03 0.98 148.03 74.74"/><polygon class="cls-1" points="104.35 369.17 104.35 247.58 178.49 247.58 178.49 219.13 0 219.13 0 247.58 74.14 247.58 74.14 369.17 0 369.17 0 397.62 178.49 397.62 178.49 369.17 104.35 369.17"/><path class="cls-1" d="M473.29,1h12.09L466.74,52H455L436.3,1h12.53l12.3,35.9Z"/><path class="cls-1" d="M494.79,52V1h18.49c15.33,0,25.61,9.79,25.61,25.55S528.61,52,513.21,52Zm18-10.72c7.85,0,14.26-4.54,14.26-14.75S520.62,11.7,512.77,11.7h-6.61V41.28Z"/><rect class="cls-1" x="612.8" y="0.98" width="3.98" height="396.64"/><path class="cls-1" d="M654.54,52.11v-51h11.51v51Z"/><path class="cls-1" d="M677.57,52.11v-51h11.51v51Z"/><path class="cls-1" d="M697.65,26.7C697.65,10.8,709.74,0,724,0c15.33,0,22.1,9.86,23.76,17.2L737,20.59c-.79-3.53-4-9.51-13-9.51-6.84,0-14.54,4.9-14.54,15.62,0,9.58,7.06,15.12,14.69,15.12,8.85,0,12.38-5.9,13.38-9.57l10.87,3.09c-1.65,7.06-8.42,17.85-24.25,17.85C709.45,53.19,697.65,42.61,697.65,26.7Z"/><path class="cls-1" d="M778.19,12V52.11H766.82V12H751.13V1.08H794V12Z"/><path class="cls-1" d="M655.61,138.5v-51h7.2v51Z"/><path class="cls-1" d="M681.89,138.5h-6.77V103.88h6.62v5a11.86,11.86,0,0,1,10.65-6c8.28,0,12.39,6,12.39,13.68v22H698V117.7c0-4.82-2-8.71-8.06-8.71-5.33,0-8.06,4.25-8.06,9.5Z"/><path class="cls-1" d="M718.74,127.35c.43,3.59,3.17,6.47,8.06,6.47,3.81,0,5.9-2.16,5.9-4.6,0-2.16-1.58-3.82-4.46-4.47l-5.9-1.29c-5.4-1.15-8.64-4.82-8.64-9.72,0-5.9,5.54-10.94,12.31-10.94,9.5,0,12.45,6.19,13.17,9.29l-6,2.23c-.29-1.8-1.73-5.76-7.2-5.76-3.46,0-5.76,2.23-5.76,4.61,0,2.08,1.3,3.59,4,4.17l5.61,1.22c6.26,1.37,9.58,5.19,9.58,10.3,0,4.89-4.11,10.72-12.67,10.72-9.5,0-13.53-6.12-14.11-10.07Z"/><path class="cls-1" d="M757.53,103.88H765V110h-7.49v18c0,3.17,1.3,4.75,4.83,4.75a14.1,14.1,0,0,0,2.66-.28v5.75a14.67,14.67,0,0,1-4.61.65c-5.9,0-9.64-3.6-9.64-9.86V110h-6.62v-6.12H746c3.74,0,5.32-2.3,5.32-5.33V92.94h6.19Z"/><path class="cls-1" d="M776.39,85.89a4.86,4.86,0,1,1-4.82,4.89A4.85,4.85,0,0,1,776.39,85.89Zm-3.31,52.61V103.88h6.69V138.5Z"/><path class="cls-1" d="M800.14,103.88h7.49V110h-7.49v18c0,3.17,1.3,4.75,4.83,4.75a14.1,14.1,0,0,0,2.66-.28v5.75a14.67,14.67,0,0,1-4.61.65c-5.9,0-9.64-3.6-9.64-9.86V110h-6.63v-6.12h1.88c3.74,0,5.32-2.3,5.32-5.33V92.94h6.19Z"/><path class="cls-1" d="M828.28,139.58c-8.06,0-12.95-6-12.95-13.89V103.88h6.76v20.8c0,4.75,2.16,8.93,7.85,8.93,5.47,0,8.21-3.6,8.21-8.86V103.88h6.76V132.1a59.15,59.15,0,0,0,.36,6.4h-6.48a31.39,31.39,0,0,1-.28-4.17C836.63,137.93,832.32,139.58,828.28,139.58Z"/><path class="cls-1" d="M865.35,103.88h7.49V110h-7.49v18c0,3.17,1.3,4.75,4.82,4.75a14.12,14.12,0,0,0,2.67-.28v5.75a14.73,14.73,0,0,1-4.61.65c-5.9,0-9.64-3.6-9.64-9.86V110H852v-6.12h1.88c3.74,0,5.32-2.3,5.32-5.33V92.94h6.19Z"/><path class="cls-1" d="M923.94,133.25a11.59,11.59,0,0,1-10.72,6.19c-10.15,0-16.41-8.06-16.41-18.36,0-9.79,6.62-18.14,16.41-18.14,6.11,0,9.43,3,10.58,5.84V86.39h6.69V132.1a55,55,0,0,0,.36,6.4H924.3a29.44,29.44,0,0,1-.36-4.68Zm-10.08.21c6.19,0,10-5.39,10-12.52s-3.74-12-9.93-12-10.22,5-10.22,12.16S907.39,133.46,913.86,133.46Z"/><path class="cls-1" d="M972.17,128.64c-1.95,6.12-7.49,10.94-15.55,10.94-9.29,0-17.42-6.76-17.42-18.5,0-10.87,7.85-18.28,16.55-18.28,10.66,0,16.63,7.34,16.63,18.14a15.66,15.66,0,0,1-.14,2.16H946.18c.15,6.19,4.61,10.51,10.44,10.51,5.61,0,8.42-3.1,9.72-7Zm-6.84-11c-.15-5-3.39-8.85-9.5-8.85a9.31,9.31,0,0,0-9.43,8.85Z"/><path class="cls-1" d="M984.26,127.35c.43,3.59,3.16,6.47,8.06,6.47,3.81,0,5.9-2.16,5.9-4.6,0-2.16-1.58-3.82-4.46-4.47l-5.9-1.29c-5.4-1.15-8.64-4.82-8.64-9.72,0-5.9,5.54-10.94,12.31-10.94,9.5,0,12.45,6.19,13.17,9.29l-6,2.23c-.29-1.8-1.73-5.76-7.2-5.76-3.46,0-5.76,2.23-5.76,4.61,0,2.08,1.29,3.59,4,4.17l5.61,1.22c6.26,1.37,9.58,5.19,9.58,10.3,0,4.89-4.11,10.72-12.67,10.72-9.5,0-13.53-6.12-14.11-10.07Z"/><path class="cls-1" d="M674.19,180.41v44.48h-7.06V180.41H650.07v-6.55h41.17v6.55Z"/><path class="cls-1" d="M720.32,215c-1.94,6.12-7.48,10.94-15.55,10.94-9.28,0-17.41-6.76-17.41-18.5,0-10.87,7.84-18.28,16.55-18.28,10.65,0,16.63,7.34,16.63,18.14a14,14,0,0,1-.15,2.16h-26c.14,6.19,4.6,10.51,10.43,10.51,5.62,0,8.43-3.1,9.72-7Zm-6.84-11c-.14-5-3.38-8.85-9.5-8.85a9.32,9.32,0,0,0-9.43,8.85Z"/><path class="cls-1" d="M733.64,207.55c0,7.91,5,12.16,10.58,12.16a9.4,9.4,0,0,0,9.64-7.13l6,2.6A15.91,15.91,0,0,1,744.22,226c-10.08,0-17.49-7.92-17.49-18.42,0-10.8,7.56-18.36,17.42-18.36,9.21,0,14,5.76,15.4,11l-6.12,2.59c-.86-3.38-3.38-7.34-9.28-7.34C738.68,195.45,733.64,199.48,733.64,207.55Z"/><path class="cls-1" d="M774.59,224.89h-6.76V172.78h6.76V194.3c2.52-3.67,6.55-5,10.51-5,8.28,0,12.38,6,12.38,13.68v21.95h-6.76v-20.8c0-4.82-2-8.71-8.07-8.71-5.18,0-7.91,4-8.06,9.14Z"/><path class="cls-1" d="M814.83,224.89h-6.77V190.27h6.62v5a11.86,11.86,0,0,1,10.66-6c8.27,0,12.38,6,12.38,13.68v21.95H831v-20.8c0-4.82-2-8.71-8.06-8.71-5.33,0-8.06,4.25-8.06,9.5Z"/><path class="cls-1" d="M881.41,207.55c0,10.58-7.35,18.42-17.71,18.42S846,218.13,846,207.55s7.34-18.36,17.71-18.36S881.41,197,881.41,207.55Zm-6.91,0c0-8-5-12.31-10.8-12.31s-10.8,4.32-10.8,12.31,5,12.38,10.8,12.38S874.5,215.61,874.5,207.55Z"/><path class="cls-1" d="M890,224.89V172.78h6.77v52.11Z"/><path class="cls-1" d="M940.86,207.55c0,10.58-7.34,18.42-17.71,18.42s-17.71-7.84-17.71-18.42,7.35-18.36,17.71-18.36S940.86,197,940.86,207.55Zm-6.91,0c0-8-5-12.31-10.8-12.31s-10.8,4.32-10.8,12.31,5,12.38,10.8,12.38S934,215.61,934,207.55Z"/><path class="cls-1" d="M953.74,225.25a9.21,9.21,0,0,0,9.43,8.5c7.27,0,10.58-3.75,10.58-11.23v-5c-1.66,3.17-5.4,5.69-10.58,5.69-9.21,0-15.91-7-15.91-16.77,0-9.36,6.41-16.85,15.91-16.85,5.33,0,8.92,2,10.65,5.47v-4.82h6.7v32c0,8.78-4.32,17.35-17.35,17.35-8.64,0-15.12-5.47-16-12.89ZM974,206.47c0-6.7-4-11.09-9.86-11.09s-10,4.39-10,11.09,3.89,11.08,10,11.08C970,217.55,974,213.16,974,206.47Z"/><path class="cls-1" d="M994.77,172.28a4.86,4.86,0,1,1-4.83,4.89A4.85,4.85,0,0,1,994.77,172.28Zm-3.31,52.61V190.27h6.69v34.62Z"/><path class="cls-1" d="M1039.75,215c-1.94,6.12-7.48,10.94-15.54,10.94-9.29,0-17.42-6.76-17.42-18.5,0-10.87,7.84-18.28,16.55-18.28,10.65,0,16.63,7.34,16.63,18.14a14,14,0,0,1-.15,2.16h-26c.14,6.19,4.61,10.51,10.44,10.51,5.61,0,8.42-3.1,9.71-7Zm-6.84-11c-.14-5-3.38-8.85-9.5-8.85A9.32,9.32,0,0,0,1014,204Z"/><path class="cls-1" d="M1051.84,213.74c.44,3.59,3.17,6.47,8.07,6.47,3.81,0,5.9-2.16,5.9-4.6,0-2.16-1.59-3.82-4.46-4.47l-5.91-1.29c-5.4-1.15-8.63-4.82-8.63-9.72,0-5.9,5.54-10.94,12.3-10.94,9.51,0,12.46,6.19,13.18,9.29l-6,2.23c-.29-1.8-1.73-5.76-7.2-5.76-3.45,0-5.75,2.23-5.75,4.61,0,2.08,1.29,3.59,4,4.17l5.62,1.22c6.26,1.37,9.57,5.19,9.57,10.3,0,4.89-4.1,10.72-12.67,10.72-9.5,0-13.53-6.12-14.1-10.08Z"/><path class="cls-1" d="M1124.25,219.64a11.58,11.58,0,0,1-10.72,6.19c-10.15,0-16.41-8.06-16.41-18.36,0-9.79,6.62-18.14,16.41-18.14,6.12,0,9.43,3,10.58,5.84V172.78h6.69v45.71a55,55,0,0,0,.36,6.4h-6.55a29.44,29.44,0,0,1-.36-4.68Zm-10.07.21c6.19,0,10-5.39,10-12.52s-3.74-12-9.93-12-10.22,5-10.22,12.16S1107.7,219.85,1114.18,219.85Z"/><path class="cls-1" d="M1172.48,215c-2,6.12-7.49,10.94-15.55,10.94-9.28,0-17.42-6.76-17.42-18.5,0-10.87,7.85-18.28,16.56-18.28,10.65,0,16.62,7.34,16.62,18.14a15.66,15.66,0,0,1-.14,2.16h-26.06c.15,6.19,4.61,10.51,10.44,10.51,5.61,0,8.42-3.1,9.72-7Zm-6.84-11c-.14-5-3.38-8.85-9.5-8.85a9.31,9.31,0,0,0-9.43,8.85Z"/><path class="cls-1" d="M654.25,311.28V259.17H661v52.11Z"/><path class="cls-1" d="M675.91,259.6c2.88,0,5.47,2.16,5.47,6.34,0,8.92-5.76,12.59-9.93,13.1v-3.46c3.24-.72,5.47-4,5.54-7.27a2.64,2.64,0,0,1-1.44.36,4.36,4.36,0,0,1-4.53-4.61A4.68,4.68,0,0,1,675.91,259.6Z"/><path class="cls-1" d="M693.47,258.67a4.86,4.86,0,1,1-4.82,4.89A4.86,4.86,0,0,1,693.47,258.67Zm-3.31,52.61V276.66h6.7v34.62Z"/><path class="cls-1" d="M714.56,311.28H707.8V276.66h6.62v5a11.86,11.86,0,0,1,10.65-6c8.28,0,12.38,6,12.38,13.68v21.95h-6.76v-20.8c0-4.82-2-8.71-8.07-8.71-5.32,0-8.06,4.25-8.06,9.5Z"/><path class="cls-1" d="M757.46,282.78v28.5h-7v-28.5h-6.41v-6.12h6.41v-5.83c0-7.7,5.11-11.88,11.37-11.88a8.84,8.84,0,0,1,4,.72v6.05a7.9,7.9,0,0,0-3-.43c-2.37,0-5.47,1.15-5.47,5.9v5.47h8.35v6.12Z"/><path class="cls-1" d="M805.25,293.94c0,10.58-7.34,18.42-17.7,18.42s-17.71-7.84-17.71-18.42,7.34-18.36,17.71-18.36S805.25,283.43,805.25,293.94Zm-6.91,0c0-8-5-12.31-10.79-12.31s-10.8,4.32-10.8,12.31,5,12.38,10.8,12.38S798.34,302,798.34,293.94Z"/><path class="cls-1" d="M833.11,283.5a20.32,20.32,0,0,0-3-.22c-5.69,0-9.5,3-9.5,10.66v17.34h-6.77V276.66h6.62v6a10.85,10.85,0,0,1,10.37-6.63,12.88,12.88,0,0,1,2.23.22Z"/><path class="cls-1" d="M840,311.28V276.66h6.48v4.61c2.16-3.82,6.47-5.62,10.5-5.62a10.82,10.82,0,0,1,10.37,6.55c2.73-5,7.2-6.55,11.59-6.55,6,0,11.95,4.11,11.95,13.17v22.46h-6.7V289.54c0-4.53-2.23-7.91-7.34-7.91-4.75,0-8,3.74-8,8.71v20.94h-6.76V289.54c0-4.46-2.16-7.91-7.35-7.91-4.82,0-8.06,3.6-8.06,8.78v20.87Z"/><path class="cls-1" d="M909.69,291.49l9.36-1.37c2.09-.29,2.66-1.37,2.66-2.59,0-3.38-2.23-6.19-7.48-6.19-4.75,0-7.42,3-7.85,7l-6.48-1.51c.72-6.62,6.7-11.23,14.18-11.23,10.37,0,14.4,5.9,14.4,12.67V305.6a33,33,0,0,0,.43,5.68h-6.62a24.75,24.75,0,0,1-.36-4.68c-1.51,2.45-5,5.76-11.16,5.76-7,0-11.59-4.89-11.59-10.36C899.18,295.81,903.72,292.35,909.69,291.49Zm12,5v-1.58l-10.58,1.58c-2.88.44-5,2.09-5,5.19,0,2.59,2.16,5,5.62,5C917.25,306.68,921.71,304,921.71,296.45Z"/><path class="cls-1" d="M948.27,276.66h7.49v6.12h-7.49v18c0,3.17,1.3,4.75,4.82,4.75a14.12,14.12,0,0,0,2.67-.28V311a14.73,14.73,0,0,1-4.61.65c-5.9,0-9.64-3.6-9.64-9.86v-19h-6.63v-6.12h1.87c3.75,0,5.33-2.3,5.33-5.33v-5.61h6.19Z"/><path class="cls-1" d="M967.13,258.67a4.86,4.86,0,1,1-4.82,4.89A4.85,4.85,0,0,1,967.13,258.67Zm-3.31,52.61V276.66h6.69v34.62Z"/><path class="cls-1" d="M1014.56,293.94c0,10.58-7.34,18.42-17.71,18.42s-17.7-7.84-17.7-18.42,7.34-18.36,17.7-18.36S1014.56,283.43,1014.56,293.94Zm-6.91,0c0-8-5-12.31-10.8-12.31s-10.79,4.32-10.79,12.31,5,12.38,10.79,12.38S1007.65,302,1007.65,293.94Z"/><path class="cls-1" d="M1030,311.28h-6.76V276.66h6.62v5a11.86,11.86,0,0,1,10.65-6c8.28,0,12.38,6,12.38,13.68v21.95h-6.76v-20.8c0-4.82-2-8.71-8.06-8.71-5.33,0-8.07,4.25-8.07,9.5Z"/><path class="cls-1" d="M1112.23,301.42c-1.94,6.12-7.48,10.94-15.54,10.94-9.29,0-17.42-6.76-17.42-18.5,0-10.87,7.84-18.28,16.55-18.28,10.65,0,16.63,7.34,16.63,18.14a15.66,15.66,0,0,1-.14,2.16h-26.06c.14,6.19,4.61,10.51,10.44,10.51,5.61,0,8.42-3.1,9.71-7Zm-6.83-11c-.15-5-3.39-8.86-9.51-8.86a9.33,9.33,0,0,0-9.43,8.86Z"/><path class="cls-1" d="M1130,276.66h7.49v6.12H1130v18c0,3.17,1.3,4.75,4.82,4.75a14.12,14.12,0,0,0,2.67-.28V311a14.73,14.73,0,0,1-4.61.65c-5.9,0-9.64-3.6-9.64-9.86v-19h-6.63v-6.12h1.88c3.74,0,5.32-2.3,5.32-5.33v-5.61H1130Z"/><path class="cls-1" d="M1188.6,306a11.59,11.59,0,0,1-10.72,6.19c-10.15,0-16.42-8.06-16.42-18.36,0-9.79,6.63-18.14,16.42-18.14,6.11,0,9.42,3,10.58,5.83V259.17h6.69v45.71a55,55,0,0,0,.36,6.4H1189a29.44,29.44,0,0,1-.36-4.68Zm-10.08.21c6.19,0,10-5.39,10-12.52s-3.74-12-9.93-12-10.23,5-10.23,12.16S1172.05,306.24,1178.52,306.24Z"/><path class="cls-1" d="M1236.83,301.42c-1.95,6.12-7.49,10.94-15.55,10.94-9.29,0-17.42-6.76-17.42-18.5,0-10.87,7.84-18.28,16.55-18.28,10.66,0,16.63,7.34,16.63,18.14a15.66,15.66,0,0,1-.14,2.16h-26.06c.15,6.19,4.61,10.51,10.44,10.51,5.61,0,8.42-3.1,9.72-7Zm-6.84-11c-.15-5-3.39-8.86-9.5-8.86a9.32,9.32,0,0,0-9.43,8.86Z"/><path class="cls-1" d="M654.25,397.67V345.56H661v52.11Z"/><path class="cls-1" d="M680.16,377.88l9.36-1.37c2.08-.29,2.66-1.37,2.66-2.59,0-3.38-2.23-6.19-7.49-6.19-4.75,0-7.41,2.95-7.84,7l-6.48-1.51c.72-6.62,6.69-11.23,14.18-11.23,10.36,0,14.39,5.9,14.39,12.67V392a31.55,31.55,0,0,0,.44,5.68h-6.63a25.67,25.67,0,0,1-.36-4.68c-1.51,2.45-5,5.76-11.15,5.76-7.06,0-11.59-4.89-11.59-10.36C669.65,382.2,674.18,378.74,680.16,377.88Zm12,5v-1.58l-10.58,1.58c-2.88.44-5,2.09-5,5.19,0,2.59,2.16,5,5.61,5C687.72,393.07,692.18,390.4,692.18,382.84Z"/><path class="cls-1" d="M732.34,380.33c0,7.91,5,12.16,10.58,12.16a9.41,9.41,0,0,0,9.65-7.13l6,2.59a15.9,15.9,0,0,1-15.62,10.8c-10.07,0-17.49-7.92-17.49-18.42,0-10.8,7.56-18.36,17.42-18.36,9.21,0,14,5.76,15.4,11l-6.11,2.59c-.87-3.38-3.39-7.34-9.29-7.34C737.38,368.23,732.34,372.26,732.34,380.33Z"/><path class="cls-1" d="M799.64,380.33c0,10.58-7.34,18.42-17.71,18.42s-17.7-7.84-17.7-18.42S771.57,362,781.93,362,799.64,369.82,799.64,380.33Zm-6.91,0c0-8-5-12.31-10.8-12.31s-10.79,4.32-10.79,12.31,5,12.38,10.79,12.38S792.73,388.39,792.73,380.33Z"/><path class="cls-1" d="M808.28,397.67V363.05h6.47v4.61c2.16-3.82,6.48-5.62,10.51-5.62a10.82,10.82,0,0,1,10.37,6.55c2.73-5,7.2-6.55,11.59-6.55,6,0,11.94,4.11,11.94,13.17v22.46h-6.69V375.93c0-4.53-2.23-7.91-7.34-7.91-4.75,0-8,3.74-8,8.71v20.94h-6.77V375.93c0-4.46-2.16-7.91-7.34-7.91-4.82,0-8.06,3.6-8.06,8.78v20.87Z"/><path class="cls-1" d="M869.74,397.67V363.05h6.48v4.61c2.16-3.82,6.48-5.62,10.51-5.62a10.83,10.83,0,0,1,10.37,6.55c2.73-5,7.19-6.55,11.58-6.55,6.05,0,12,4.11,12,13.17v22.46h-6.69V375.93c0-4.53-2.23-7.91-7.34-7.91-4.75,0-8,3.74-8,8.71v20.94h-6.77V375.93c0-4.46-2.16-7.91-7.34-7.91-4.82,0-8.06,3.6-8.06,8.78v20.87Z"/><path class="cls-1" d="M943.81,398.75c-8.06,0-13-6-13-13.89V363.05h6.77v20.8c0,4.75,2.16,8.93,7.84,8.93,5.47,0,8.21-3.6,8.21-8.86V363.05h6.77v28.22a56.64,56.64,0,0,0,.36,6.4h-6.48a29.55,29.55,0,0,1-.29-4.17C952.16,397.1,947.84,398.75,943.81,398.75Z"/><path class="cls-1" d="M978.21,397.67h-6.76V363.05h6.62v5a11.86,11.86,0,0,1,10.65-6c8.28,0,12.38,6,12.38,13.68v21.95h-6.76v-20.8c0-4.82-2-8.71-8.07-8.71-5.32,0-8.06,4.25-8.06,9.5Z"/><path class="cls-1" d="M1015,345.06a4.86,4.86,0,1,1-4.82,4.89A4.86,4.86,0,0,1,1015,345.06Zm-3.31,52.61V363.05h6.7v34.62Z"/><path class="cls-1" d="M1033.92,380.33c0,7.91,5,12.16,10.58,12.16a9.41,9.41,0,0,0,9.65-7.13l6,2.59a15.9,15.9,0,0,1-15.62,10.8c-10.07,0-17.49-7.92-17.49-18.42,0-10.8,7.56-18.36,17.42-18.36,9.21,0,14,5.76,15.4,11l-6.11,2.59c-.87-3.38-3.39-7.34-9.29-7.34C1039,368.23,1033.92,372.26,1033.92,380.33Z"/><path class="cls-1" d="M1076.32,377.88l9.35-1.37c2.09-.29,2.67-1.37,2.67-2.59,0-3.38-2.23-6.19-7.49-6.19-4.75,0-7.41,2.95-7.84,7l-6.48-1.51c.72-6.62,6.69-11.23,14.18-11.23,10.36,0,14.39,5.9,14.39,12.67V392a33,33,0,0,0,.43,5.68h-6.62a25.67,25.67,0,0,1-.36-4.68c-1.51,2.45-5,5.76-11.15,5.76-7.06,0-11.59-4.89-11.59-10.36C1065.81,382.2,1070.34,378.74,1076.32,377.88Zm12,5v-1.58l-10.58,1.58c-2.88.44-5,2.09-5,5.19,0,2.59,2.16,5,5.61,5C1083.87,393.07,1088.34,390.4,1088.34,382.84Z"/><path class="cls-1" d="M1114.9,363.05h7.48v6.12h-7.48v18c0,3.17,1.29,4.75,4.82,4.75a14,14,0,0,0,2.66-.28v5.75a14.59,14.59,0,0,1-4.6.65c-5.91,0-9.65-3.6-9.65-9.86v-19h-6.62v-6.12h1.87c3.74,0,5.33-2.3,5.33-5.33v-5.61h6.19Z"/><path class="cls-1" d="M1133.75,345.06a4.86,4.86,0,1,1-4.82,4.89A4.86,4.86,0,0,1,1133.75,345.06Zm-3.31,52.61V363.05h6.7v34.62Z"/><path class="cls-1" d="M1181.19,380.33c0,10.58-7.35,18.42-17.71,18.42s-17.71-7.84-17.71-18.42,7.35-18.36,17.71-18.36S1181.19,369.82,1181.19,380.33Zm-6.91,0c0-8-5-12.31-10.8-12.31s-10.8,4.32-10.8,12.31,5,12.38,10.8,12.38S1174.28,388.39,1174.28,380.33Z"/><path class="cls-1" d="M1196.59,397.67h-6.77V363.05h6.62v5a11.87,11.87,0,0,1,10.66-6c8.27,0,12.38,6,12.38,13.68v21.95h-6.77v-20.8c0-4.82-2-8.71-8.06-8.71-5.33,0-8.06,4.25-8.06,9.5Z"/></g></g></svg>